# xmcd
#
# Track frame offsets:
#	150
#	17355
#	39099
#	60017
#	77999
#	95359
#	119270
#	134858
#	145968
#	162520
#	183640
#
# Disc length: 2627 seconds
#
# Revision: 1
# Processed by: cddbd v1.5.2PL0 Copyright (c) Steve Scherf et al.
# Submitted via: audiograbber 1.83.01
#
DISCID=8d0a410b
DTITLE=Jytte Pilloni and Blue Sun - It's All Money Johnny, 04
DYEAR=2004
DGENRE=Blues, Rock | DK.e.
TTITLE0=Come On Children
TTITLE1=Gollum
TTITLE2=Cream Candy Cloud
TTITLE3=Blue Pyramid
TTITLE4=Lad Mig Dele Dine Drømme
TTITLE5=Gong-Gong
TTITLE6=Lucky Jack
TTITLE7=Afraid
TTITLE8=It's All Money Johnny
TTITLE9=Blue Sun
TTITLE10=Johnny The Junkie
EXTD=
EXTT0=
EXTT1=
EXTT2=
EXTT3=
EXTT4=
EXTT5=
EXTT6=
EXTT7=
EXTT8=
EXTT9=
EXTT10=
PLAYORDER=
